# xmcd
#
# Track frame offsets: 
#        150
#        12561
#        29206
#        39760
#        50484
#        59367
#        71052
#        84248
#        92740
#        106174
#
# Disc length: 1629 seconds
#
# Revision: 0
# Processed by: cddbd v1.5.2PL0 Copyright (c) Steve Scherf et al.
# Submitted via: ExactAudioCopyFreeDBPlugin 1.0
#
DISCID=7f065b0a
DTITLE=Ralph Stanley - Old Songs and Ballads
DYEAR=2012
DGENRE=Bluegrass
TTITLE0=Little Maggie
TTITLE1=Dad's Old Rocky Field
TTITLE2=Train 45
TTITLE3=Short Life Of Trouble
TTITLE4=Gold Watch And Chain
TTITLE5=Pretty Little Indian
TTITLE6=Hemlocks And Primroses
TTITLE7=Rocky Island
TTITLE8=The Orphan Girl
TTITLE9=Pretty Polly
EXTD=
EXTT0=
EXTT1=
EXTT2=
EXTT3=
EXTT4=
EXTT5=
EXTT6=
EXTT7=
EXTT8=
EXTT9=
PLAYORDER=
